PathFileType	4	(X/Y/Z)	C:/Users/beibeiliu/ov580/test_trc\sequence.36_training_dense_left.trc
DataRate	CameraRate	NumFrames	NumMarkers	Units	OrigDataRate	OrigDataStartFrame	OrigNumFrames
120	120	24	19	mm	120	1	165
Frame#	Time	ThumbCMC			ThumbMCP			ThumbIP			ThumbTip			IndexMCP			IndexPIP			IndexTip			MiddleMCP			MiddlePIP			MiddleTip			RingMCP			RingPIP			RingTip			PinkyMCP			PinkyPIP			PinkyTip			BackHand1			BackHand2			BackHand3	
		X0	Y0	Z0	X1	Y1	Z1	X2	Y2	Z2	X3	Y3	Z3	X4	Y4	Z4	X5	Y5	Z5	X6	Y6	Z6	X7	Y7	Z7	X8	Y8	Z8	X9	Y9	Z9	X10	Y10	Z10	X11	Y11	Z11	X12	Y12	Z12	X13	Y13	Z13	X14	Y14	Z14	X15	Y15	Z15	X16	Y16	Z16	X17	Y17	Z17	X18	Y18	Z18	
0	0	-143.639	0.788174	57.4631	-136.361	-19.7516	37.0606	-129.622	-31.6264	16.1645	-131.707	-42.1645	-7.05631	-142.63	17.4446	-7.87156	-135.059	11.7179	-27.6631	-126.721	7.93046	-53.3151	-163.773	26.1033	-15.9147	-163.237	28.0404	-39.4321	-164.253	29.9245	-64.403	-184.956	17.8073	-15.9745	-187.532	10.1538	-34.5279	-190.045	-3.70944	-52.727	-211.069	17.0908	-2.24963	-215.075	13.4192	-14.9068	-219.904	15.2026	-34.4508	-184.536	32.6431	29.6973	-187.782	33.4121	60.87	-160.693	30.4493	46.2416	
1	0.00833333	-147.033	-2.66713	57.2067	-138.277	-22.1996	36.5103	-137.676	-30.2452	15.689	-136.885	-41.6553	-7.10412	-142.747	16.9289	-6.23729	-135.499	13.4014	-29.2302	-128.528	10.1214	-52.0688	-162.182	21.5533	-16.981	-162.052	17.8785	-38.0657	-166.282	4.32108	-64.7719	-188.357	18.2083	-12.1809	-185.403	7.50025	-32.4645	-188.213	-9.56811	-54.0225	-206.623	20.0294	3.89826	-215.76	20.767	-17.0964	-219.784	26.4855	-28.9616	-187.223	30.5988	35.6852	-186.468	32.5571	60.9686	-160.002	26.9557	47.5596	
2	0.0166667	-146.6	-7.9859	60.85	-138.887	-25.5989	40.392	-133.689	-35.5639	13.5379	-135.635	-42.5528	-2.15831	-135.058	11.8627	-6.24997	-134.062	10.6759	-24.9852	-123.7	7.65188	-45.2532	-161.616	14.2297	-13.1925	-160.558	0.583589	-37.2446	-164.535	-23.7692	-51.9505	-179.761	16.6984	-8.03776	-181.852	5.93155	-35.2414	-184.954	-7.19709	-53.0871	-204.635	20.9377	5.4941	-211.33	23.1113	-12.1552	-214.027	30.0222	-26.6476	-185.015	27.9466	36.9866	-184.204	26.8726	62.363	-159.947	22.514	52.2751	
3	0.025	-137.291	-9.76087	57.4969	-133.085	-26.2665	38.2042	-128.087	-35.7026	16.5601	-127.258	-44.6473	-0.224666	-132.312	11.9352	-5.42383	-124.059	9.53741	-26.6675	-124.221	8.35653	-44.7701	-153.861	9.60617	-10.9805	-156.771	-11.5646	-34.8025	-164.987	-39.4347	-35.7133	-172.853	16.6816	-9.84233	-175.525	8.74287	-33.9684	-174.858	-1.06554	-49.7829	-193.66	18.842	6.98591	-199.783	25.38	-10.849	-206.254	35.4912	-22.4876	-177.684	24.9416	34.8627	-182.7	26.2019	61.2405	-152.724	21.3257	50.5931	
4	0.0333333	-136.351	-7.73204	60.4643	-125.591	-25.9403	36.7831	-119.001	-36.8205	18.6047	-118.291	-45.8361	-1.89366	-124.378	12.7229	-1.9951	-120.897	10.5686	-22.6115	-114.345	7.4413	-44.125	-145.568	6.46648	-16.3775	-149.683	-19.2086	-30.8499	-157.379	-43.3813	-24.0343	-171.69	16.9938	-9.77602	-167.729	9.22002	-35.8423	-170.076	-2.90392	-54.0537	-193.36	20.5213	5.28795	-192.404	25.1261	-10.3135	-200.139	37.4835	-21.9071	-172.784	27.0128	34.9923	-171.773	26.1322	60.2511	-148.391	21.5238	49.9631	
5	0.0416667	-131.788	-5.40987	55.8614	-123.304	-23.5985	37.2156	-116.973	-33.6156	14.9958	-113.493	-45.2394	-2.2588	-120.521	13.9184	-1.43634	-119.717	11.0925	-28.0357	-111.95	6.67116	-45.2251	-146.699	7.43383	-16.043	-146.906	-17.054	-29.9424	-157.312	-42.621	-16.5684	-168.806	18.6733	-10.6846	-167.359	10.7429	-36.4308	-167.927	0.650716	-52.3973	-187.514	22.7508	4.96546	-189.089	26.1415	-9.01227	-197.664	37.6038	-22.474	-167.21	27.2738	38.0107	-171.743	27.4025	60.8244	-142.475	22.6866	51.1713	
6	0.05	-130.965	-3.8856	56.325	-122.944	-23.1499	36.577	-120.605	-32.7642	19.4777	-115.882	-42.0833	0.134163	-125.182	16.8901	-7.41578	-118.748	12.1397	-23.8703	-116.101	7.73968	-46.4769	-149.314	10.7349	-16.9607	-148.024	-11.0776	-30.9252	-156.928	-41.3743	-17.4164	-165.863	21.3695	-8.04159	-167.852	15.1818	-33.6399	-165.446	3.21966	-56.1327	-191.456	25.3417	5.68081	-194.703	32.5621	-12.2543	-199.34	42.9233	-22.6692	-168.323	27.2031	38.1298	-175.063	29.8573	62.1739	-147.144	27.1866	51.9762	
7	0.0583333	-138.052	-2.39671	61.1659	-130.848	-21.6741	40.067	-121.746	-32.2697	17.5518	-116.916	-42.9714	2.54524	-131.251	19.335	-5.65892	-124.838	13.3663	-28.703	-124.602	9.71557	-47.2626	-153.992	14.8973	-16.2945	-155.153	-4.96798	-33.4509	-159.67	-38.4085	-24.7715	-172.441	24.3815	-8.1934	-177.197	19.0686	-33.4742	-175.428	9.2392	-52.4777	-197.915	29.3154	5.41204	-199.487	33.3566	-8.00585	-206.072	46.9879	-24.0644	-179.972	30.312	38.134	-180.739	31.5571	61.0804	-150.253	28.9645	51.9774	
8	0.0666667	-145.368	-3.191	58.8051	-138.486	-21.6908	38.4524	-131.721	-31.1438	20.8132	-122.79	-42.4946	2.14557	-140.056	18.6911	-2.70344	-134.46	14.3091	-29.4386	-128.141	6.85474	-50.7671	-161.541	19.6045	-12.0205	-164.707	1.64081	-38.7509	-167.224	-26.6743	-42.8462	-182.882	24.4104	-8.27049	-185.289	20.6537	-31.3921	-181.114	11.4203	-53.6871	-205.611	25.0638	10.7402	-207.3	30.7914	-5.6637	-214.272	43.9338	-20.2522	-184.98	28.1799	37.7863	-189.14	29.8497	64.8461	-160.163	26.1921	52.6619	
9	0.075	-150.884	-5.53494	61.1393	-138.182	-26.7746	41.8708	-129.79	-36.618	26.5775	-126.65	-46.2702	9.2027	-143.552	13.4512	-3.43042	-142.006	11.1087	-24.7207	-136.443	4.87487	-48.1621	-164.787	20.0569	-12.1264	-164.053	13.082	-38.178	-167.917	-6.22808	-57.798	-184.537	21.8581	-7.12697	-191.361	21.9485	-27.0885	-188.664	17.4304	-50.0323	-205.755	19.2312	11.0132	-213.752	26.4089	-7.07037	-217.114	36.4467	-20.1069	-191.798	25.1984	39.1132	-191.624	27.4972	61.8588	-163.067	22.7153	53.9003	
10	0.0833333	-146.862	-12.7101	60.0087	-138.864	-32.8337	43.557	-130.154	-44.6692	26.0907	-121.916	-56.299	10.2557	-143.652	4.39336	-5.09518	-137.495	-0.648561	-24.9938	-135.174	-6.65193	-49.7318	-163.625	17.0369	-12.2081	-162.319	16.1285	-33.9554	-167.347	12.3549	-59.9924	-188.336	19.1634	-3.05981	-187.801	23.4693	-23.5739	-184.862	27.3587	-46.6577	-203.478	15.2607	10.579	-209.592	22.664	-6.69067	-213.169	31.7916	-20.2898	-188.543	20.2144	39.8921	-187.725	21.4763	61.2476	-161.681	17.4581	52.7152	
11	0.0916667	-144.459	-18.0105	63.633	-130.483	-40.4211	48.2332	-122.88	-52.2161	30.3957	-120.066	-62.2251	13.8328	-134.088	-3.91018	-4.30973	-129.304	-10.0989	-26.029	-127.508	-15.2061	-44.4753	-155.682	11.2531	-8.22565	-155.451	14.7247	-33.1756	-154.952	17.4226	-59.5184	-178.347	14.6029	0.0469702	-175.56	20.1055	-20.8822	-177.208	27.7127	-39.421	-194.538	14.0934	6.06463	-198.889	17.2714	-5.58135	-206.09	30.4405	-20.4965	-179.165	17.5979	38.4175	-181.637	19.4067	63.2788	-151.349	9.12282	51.8488	
12	0.1	-133.988	-19.6447	61.1063	-125.886	-41.2965	46.7231	-114.747	-56.159	30.7364	-109.639	-66.9056	14.1045	-121.998	-6.29062	-2.92095	-115.812	-12.3998	-22.2972	-113.901	-17.4743	-40.859	-142.841	8.68799	-8.51169	-143.312	12.5086	-32.2974	-143.506	17.5914	-52.3991	-168.681	13.7266	-0.376304	-162.888	18.2213	-23.4266	-164.555	23.6303	-41.7486	-187.791	10.6478	11.8259	-190.683	15.8823	-3.43845	-194.465	29.8955	-20.4263	-165.74	11.7792	38.533	-170.444	14.8525	66.9466	-144.361	6.8459	55.6075	
13	0.108333	-125.488	-18.0722	66.9827	-112.302	-38.8732	46.9418	-105.269	-49.7499	27.3602	-103.351	-60.6588	9.1361	-116.787	2.73516	2.82941	-107.76	-1.32822	-16.9299	-100.993	-7.96633	-41.3967	-135.047	14.7773	-7.58005	-131.568	16.2105	-29.5059	-130.558	19.586	-50.2616	-157.356	14.3241	-2.43995	-156.378	14.6993	-22.1781	-154.402	12.8538	-44.2317	-177.233	13.5481	8.43829	-184.795	18.4625	-8.18298	-186.434	27.6507	-22.2705	-160.215	13.8228	40.3196	-164.279	17.2712	66.4852	-137.811	12.5505	60.537	
14	0.116667	-121.578	-3.72865	68.0166	-109.53	-22.7566	49.3354	-101.385	-32.9963	28.0863	-100.884	-40.776	7.71599	-116.148	20.4708	3.11243	-107.991	17.9081	-15.91	-98.9274	12.5832	-37.5201	-134.997	25.6648	-2.1243	-130.164	26.8636	-26.8429	-129.364	25.0368	-56.0824	-156.535	18.2988	-2.3982	-153.094	12.141	-26.3241	-147.081	-0.261928	-42.219	-181.699	15.5588	8.03825	-183.897	17.3827	-6.28046	-188.09	23.5055	-29.2757	-167.583	22.1315	43.9044	-167.909	20.3372	67.0417	-142.267	23.8384	59.8374	
15	0.125	-127.421	18.4048	66.0061	-111.971	2.96171	43.7311	-100.893	-4.07075	21.0252	-97.3496	-13.9475	6.52454	-126.075	41.7948	3.57384	-115.207	40.8745	-16.6076	-109.268	36.9047	-41.6217	-147.72	37.7304	-4.81956	-134.911	35.071	-32.8745	-128.987	23.6804	-53.8301	-163.543	22.5673	-4.20954	-151.709	12.4127	-24.8619	-140.276	-6.62305	-35.6431	-185.702	13.6019	4.74935	-182.626	13.1635	-13.4644	-180.464	11.6514	-35.4323	-174.793	28.5785	38.9852	-179.368	27.8044	65.3636	-153.368	41.7275	55.9994	
16	0.133333	-137.805	50.8916	63.2419	-114.606	42.5239	38.129	-104.51	37.8643	20.8865	-95.9236	30.5791	-0.371698	-145.494	61.6384	-1.65472	-133.958	59.9833	-26.4242	-124.005	59.0313	-44.8125	-156.599	43.7908	-10.0831	-138.661	37.6115	-34.9056	-116.729	22.1424	-42.7644	-160.748	27.1669	-8.27421	-143.547	15.2938	-26.04	-118.949	3.321	-25.9033	-176.613	9.49723	0.368039	-170.821	6.16685	-15.8469	-159.619	1.81093	-33.3567	-183.372	31.0427	38.133	-187.579	34.0074	58.7974	-172.1	54.4007	48.1479	
17	0.141667	-153.448	78.3215	53.9846	-129.836	79.0969	37.3375	-116.152	80.2092	17.7617	-102.629	78.1197	-1.68376	-157.714	74.915	-9.67305	-144.249	72.8698	-34.0516	-131.787	74.7094	-50.7377	-151.345	50.872	-18.9994	-126.874	51.4691	-31.2642	-96.3833	46.1271	-16.2574	-151.016	30.6447	-11.2659	-128.312	30.4283	-22.7952	-102.792	39.4873	-13.0365	-156.506	14.268	2.79344	-142.509	9.12201	-15.7935	-128.875	10.9978	-26.6085	-178.243	34.1328	30.6165	-185.135	32.7944	53.144	-182.101	57.3465	41.3981	
18	0.15	-169.409	91.325	41.7571	-149.88	101.834	28.2943	-136.51	112.599	5.78798	-124.347	113.041	-8.26612	-158.972	76.8487	-18.2593	-146.185	81.4496	-41.1676	-128.667	84.9868	-57.372	-141	61.2158	-20.3345	-109.936	73.8588	-24.5988	-98.6057	84.4598	-1.87493	-132.652	44.447	-10.2585	-106.562	56.5998	-18.9115	-93.5689	77.9496	-3.4607	-128.832	27.8593	5.57765	-112.613	30.5862	-12.1503	-99.2526	38.2826	-21.6345	-163.276	39.2559	28.1882	-173.569	35.4964	50.8294	-177.848	57.421	34.135	
19	0.158333	-171.927	95.8801	33.4582	-164.022	117.08	16.1637	-156.033	126.975	-2.71268	-148.002	137.809	-19.1624	-145.766	81.2963	-28.8949	-136.744	88.4347	-45.5371	-119.894	99.8094	-62.6189	-122.015	80.4819	-24.584	-107.316	105.796	-25.5617	-106.345	119.192	1.96072	-108.401	67.4778	-12.392	-95.996	86.7409	-19.6499	-93.4598	113.976	-6.92595	-104.555	53.1534	10.7172	-87.8906	56.4502	-4.53678	-73.7968	69.9954	-16.1293	-141.976	50.976	22.99	-153.727	50.6914	49.5299	-169.516	65.6998	26.7864	
20	0.166667	-164.909	97.6065	30.8934	-163.383	116.6	5.35723	-161.283	125.795	-15.5513	-157.572	136.449	-33.043	-133.038	83.6295	-26.1476	-119.22	90.2767	-50.1542	-107.648	102.516	-68.592	-107.462	90.1648	-21.7349	-101.325	118.478	-31.4055	-109.779	137.524	-5.53026	-94.1886	83.7505	-8.75026	-82.3152	108.059	-23.2971	-90.0714	131.094	-18.9214	-86.4776	76.2139	13.6406	-70.2288	79.6505	-0.691546	-60.0561	90.3235	-17.0645	-120.994	67.8073	27.2165	-132.755	64.7015	47.8249	-147.075	68.9923	24.5711	
21	0.175	-156.11	93.3865	27.356	-156.923	107.217	7.17145	-156.569	111.162	-18.6011	-152.167	117.509	-34.7589	-121.114	75.543	-25.7032	-113.266	78.6697	-47.9863	-102.969	87.7626	-67.5891	-99.36	85.4392	-25.6871	-91.8546	113.029	-34.507	-103.31	134.694	-18.1399	-84.4928	82.5133	-6.23666	-75.457	102.43	-27.2217	-80.5077	126.702	-28.5423	-74.1254	80.263	13.6757	-58.7915	82.4963	-1.78602	-48.5894	89.9635	-14.6238	-107.654	71.0021	31.3082	-119.254	71.2143	56.8788	-135.202	69.8003	31.4476	
22	0.183333	-148.118	93.3132	34.6917	-147.039	94.3135	5.32516	-145.859	91.9963	-18.2805	-138.097	92.1492	-40.1915	-118.515	61.3346	-14.1918	-107.084	59.8458	-38.6473	-97.5996	68.2588	-59.234	-93.8071	69.2133	-16.7399	-82.1267	88.3514	-33.41	-92.7362	120.995	-23.2603	-81.0728	70.7999	-0.318261	-67.3571	82.609	-23.0854	-75.429	105.791	-33.7763	-65.6189	74.147	22.0362	-51.0796	72.5234	3.90507	-40.7495	75.8389	-11.7758	-97.0395	69.5025	42.0462	-110.122	74.4038	66.9266	-128.229	68.1881	41.7028	
23	0.191667	-144.406	94.3327	40.0926	-144.398	92.6835	12.1067	-143.346	88.6328	-8.1167	-131.78	80.2902	-30.5168	-122.778	51.7778	-6.91497	-109.233	48.2355	-31.8837	-103.147	55.2408	-50.8913	-94.5485	54.9358	-8.66912	-89.2825	70.7153	-32.6443	-91.5874	103.83	-27.9644	-79.1407	57.6059	8.01067	-72.8342	65.9404	-19.6223	-75.2508	88.0472	-31.5056	-71.391	63.0019	26.6357	-57.508	57.0101	9.14894	-49.5941	59.5107	-8.46653	-99.8469	69.8838	51.3517	-106.947	78.272	71.962	-126.811	70.1124	48.9425	
